Coordinates
version=1
nRows=18
nColumns=22
inDegrees=yes

Units are S.I. units (second, meters, Newtons, ...)
If the header above contains a line with 'inDegrees', this indicates whether rotational values are in degrees (yes) or radians (no).

endheader
time	pelvis_tilt	pelvis_list	pelvis_rotation	pelvis_tx	pelvis_ty	pelvis_tz	hip_flexion_r	hip_adduction_r	hip_rotation_r	knee_angle_r	ankle_angle_r	subtalar_angle_r	hip_flexion_l	hip_adduction_l	hip_rotation_l	knee_angle_l	ankle_angle_l	subtalar_angle_l	lumbar_extension	lumbar_bending	lumbar_rotation
      4.03000000	      3.39791131	     -0.10337956	      4.57797174	     -1.00597634	      0.90156648	     -0.09355477	    -16.36829557	      5.41447477	     -7.16544803	    -26.34897542	     13.50299741	      4.86471819	     28.09676094	      4.55416387	     -0.19870337	    -27.09451517	     11.84466222	     -8.03363581	    -16.02647417	     -0.82535774	     -2.66350813
      4.04000000	      3.39110998	     -0.27169780	      4.49171628	     -1.01728590	      0.90147581	     -0.09222528	    -15.85505752	      5.61081931	     -7.35216822	    -26.10561187	     15.13429500	      4.23732035	     28.08715315	      4.19000780	     -0.63507614	    -25.79254538	     12.03112541	     -7.02807582	    -16.24841642	     -0.63804295	     -2.54997386
      4.05000000	      3.39234335	     -0.42243036	      4.37318720	     -1.02822453	      0.90157022	     -0.09088488	    -15.29179338	      5.78086157	     -7.46911214	    -25.95729466	     16.55344799	      3.58122903	     27.99612787	      3.82231781	     -1.19347570	    -24.48163792	     12.26914200	     -6.18035010	    -16.42117623	     -0.47669890	     -2.44948538
      4.06000000	      3.40571115	     -0.54805273	      4.24377535	     -1.03868201	      0.90184326	     -0.08957483	    -14.74761434	      5.92628601	     -7.56755242	    -25.80621431	     17.77570234	      2.91641770	     27.84027969	      3.46912771	     -1.87930793	    -23.23604802	     12.50679105	     -5.49288307	    -16.53762580	     -0.34616093	     -2.34214442
      4.07000000	      3.45835860	     -0.67068675	      4.14029423	     -1.04868389	      0.90231102	     -0.08831745	    -14.27208426	      6.08867289	     -7.68008690	    -25.61956023	     18.82279026	      2.19959888	     27.63397908	      3.12440660	     -2.63771549	    -22.15248953	     12.72245091	     -4.91793583	    -16.63831049	     -0.21273260	     -2.29603791
      4.08000000	      3.54514512	     -0.77206839	      4.06469489	     -1.05821891	      0.90297236	     -0.08714335	    -13.87907732	      6.24262060	     -7.83575770	    -25.37752370	     19.70162545	      1.49442481	     27.40620201	      2.80829503	     -3.46407356	    -21.30173858	     12.86261111	     -4.49731642	    -16.72122993	     -0.09106848	     -2.30323367
      4.09000000	      3.65571403	     -0.86209246	      4.03801946	     -1.06730388	      0.90382225	     -0.08606575	    -13.57793364	      6.40548417	     -8.05485372	    -25.03998835	     20.42810582	      0.80100220	     27.18086446	      2.52519117	     -4.25071645	    -20.72237937	     12.94161734	     -4.22664703	    -16.77917012	      0.02879379	     -2.35051494
      4.10000000	      3.79252319	     -0.93601263	      4.06741997	     -1.07597890	      0.90487365	     -0.08510049	    -13.37403012	      6.57323774	     -8.33616570	    -24.60320087	     21.00496740	      0.15064882	     26.97426245	      2.27614565	     -4.96766141	    -20.45863387	     12.93653559	     -4.12376179	    -16.82749391	      0.14589404	     -2.46292275
      4.11000000	      3.94786236	     -1.00387532	      4.16500798	     -1.08427387	      0.90610544	     -0.08425935	    -13.26305500	      6.76085197	     -8.66880980	    -24.05774793	     21.49296542	     -0.38090140	     26.79261469	      2.05989262	     -5.50659454	    -20.50374230	     12.91636374	     -4.17820748	    -16.86336180	      0.27322307	     -2.62962690
      4.12000000	      4.10801511	     -1.06395421	      4.31684890	     -1.09225662	      0.90751709	     -0.08351654	    -13.20692991	      6.95835478	     -9.03956565	    -23.43904853	     21.73708426	     -1.05610437	     26.65306967	      1.86564239	     -5.87756489	    -20.84813146	     12.78809716	     -4.42278340	    -16.88526671	      0.40655409	     -2.87583097
      4.13000000	      4.27558715	     -1.11338754	      4.49903681	     -1.09992349	      0.90908545	     -0.08285488	    -13.20908752	      7.15537167	     -9.41286303	    -22.75125033	     21.90855453	     -1.55694082	     26.53555733	      1.69380161	     -6.03002313	    -21.45430543	     12.67638917	     -4.80586275	    -16.89663869	      0.53580600	     -3.11610970
      4.14000000	      4.45548265	     -1.17278105	      4.70085696	     -1.10730095	      0.91081050	     -0.08226775	    -13.26870572	      7.37019605	     -9.76442666	    -21.99800614	     21.97398684	     -1.88921959	     26.41629099	      1.52470117	     -5.94151213	    -22.26489764	     12.57620028	     -5.20458639	    -16.90935152	      0.68914949	     -3.34481665
      4.15000000	      4.61007769	     -1.19411414	      4.87141237	     -1.11441148	      0.91261160	     -0.08167658	    -13.30806422	      7.53092363	    -10.06048901	    -21.26509646	     21.93445590	     -2.38646584	     26.33638982	      1.38321562	     -5.74498156	    -23.27807538	     12.54286088	     -5.93853026	    -16.88681302	      0.78963932	     -3.57145197
      4.16000000	      4.77198500	     -1.23392962	      5.01482914	     -1.12128202	      0.91451223	     -0.08109668	    -13.37747096	      7.70099220	    -10.29791922	    -20.50667131	     21.81648530	     -2.69925607	     26.24375481	      1.22462512	     -5.36857706	    -24.42995196	     12.55226850	     -6.59421518	    -16.86689494	      0.91229018	     -3.72983955
      4.17000000	      4.92004959	     -1.27830860	      5.10572412	     -1.12791730	      0.91645707	     -0.08052294	    -13.44551939	      7.85281262	    -10.46001395	    -19.74747369	     21.62894801	     -2.93981434	     26.15273033	      1.05924628	     -4.87800044	    -25.69549258	     12.63591889	     -7.28338559	    -16.82670872	      1.03971244	     -3.82664029
      4.18000000	      5.05737384	     -1.33385399	      5.13134486	     -1.13434241	      0.91842246	     -0.07990715	    -13.51038341	      7.99185634	    -10.54795775	    -18.99594323	     21.38953408	     -3.10480512	     26.05324846	      0.87342722	     -4.31285075	    -27.04718484	     12.78687862	     -7.96210847	    -16.77320766	      1.16939996	     -3.85158372
      4.19000000	      5.18250676	     -1.39747921	      5.08329068	     -1.14056692	      0.92038048	     -0.07924100	    -13.57293180	      8.11263518	    -10.56940665	    -18.25074681	     21.09304289	     -3.19739164	     25.94064811	      0.66569644	     -3.72103715	    -28.46325023	     13.00006116	     -8.56069261	    -16.70758037	      1.29998623	     -3.81383755
      4.20000000	      5.29632114	     -1.47952101	      4.96459288	     -1.14662669	      0.92229822	     -0.07853736	    -13.63318535	      8.22559054	    -10.53998716	    -17.51067566	     20.79700075	     -3.24657569	     25.81366900	      0.42893324	     -3.11181288	    -29.92590375	     13.25931011	     -9.16258272	    -16.63298392	      1.44536345	     -3.69949945
